<?xml version="1.0" encoding="UTF-8"?>
<svg xmlns="http://www.w3.org/2000/svg" xmlns:xlink="http://www.w3.org/1999/xlink" width="170.14pt" height="196.36pt" viewBox="0 0 170.14 196.36">
<defs>
<clipPath id="clip-0">
<path clip-rule="nonzero" d="M 28 195 L 142 195 L 142 196.359375 L 28 196.359375 Z M 28 195 "/>
</clipPath>
<clipPath id="clip-1">
<path clip-rule="nonzero" d="M 28 110 L 29 110 L 29 196.359375 L 28 196.359375 Z M 28 110 "/>
</clipPath>
<clipPath id="clip-2">
<path clip-rule="nonzero" d="M 141 110 L 142 110 L 142 196.359375 L 141 196.359375 Z M 141 110 "/>
</clipPath>
<clipPath id="clip-3">
<path clip-rule="nonzero" d="M 79 105 L 170.140625 105 L 170.140625 196.359375 L 79 196.359375 Z M 79 105 "/>
</clipPath>
<clipPath id="clip-4">
<path clip-rule="nonzero" d="M 154 100 L 170.140625 100 L 170.140625 122 L 154 122 Z M 154 100 "/>
</clipPath>
<clipPath id="clip-5">
<path clip-rule="nonzero" d="M 0 105 L 91 105 L 91 196.359375 L 0 196.359375 Z M 0 105 "/>
</clipPath>
<clipPath id="clip-6">
<path clip-rule="nonzero" d="M 79 25 L 170.140625 25 L 170.140625 117 L 79 117 Z M 79 25 "/>
</clipPath>
<clipPath id="clip-7">
<path clip-rule="nonzero" d="M 79 0 L 170.140625 0 L 170.140625 117 L 79 117 Z M 79 0 "/>
</clipPath>
</defs>
<g clip-path="url(#clip-0)">
<path fill="none" stroke-width="0.3985" stroke-linecap="butt" stroke-linejoin="miter" stroke="rgb(0%, 0%, 0%)" stroke-opacity="1" stroke-miterlimit="10" d="M 0.00090625 0.00084375 L 113.387625 0.00084375 " transform="matrix(1, 0, 0, -1, 28.378, 196.161)"/>
</g>
<g clip-path="url(#clip-1)">
<path fill="none" stroke-width="0.3985" stroke-linecap="butt" stroke-linejoin="miter" stroke="rgb(0%, 0%, 0%)" stroke-opacity="1" stroke-miterlimit="10" d="M 0.00090625 0.00084375 L 0.00090625 85.039906 " transform="matrix(1, 0, 0, -1, 28.378, 196.161)"/>
</g>
<g clip-path="url(#clip-2)">
<path fill="none" stroke-width="0.3985" stroke-linecap="butt" stroke-linejoin="miter" stroke="rgb(0%, 0%, 0%)" stroke-opacity="1" stroke-miterlimit="10" d="M 113.387625 0.00084375 L 113.387625 85.039906 " transform="matrix(1, 0, 0, -1, 28.378, 196.161)"/>
</g>
<path fill="none" stroke-width="0.3985" stroke-linecap="butt" stroke-linejoin="miter" stroke="rgb(50%, 50%, 50%)" stroke-opacity="1" stroke-dasharray="0.3985 1.99255" stroke-miterlimit="10" d="M 0.00090625 141.735219 L 113.387625 141.735219 " transform="matrix(1, 0, 0, -1, 28.378, 196.161)"/>
<path fill="none" stroke-width="0.3985" stroke-linecap="butt" stroke-linejoin="miter" stroke="rgb(50%, 50%, 50%)" stroke-opacity="1" stroke-dasharray="0.3985 1.99255" stroke-miterlimit="10" d="M 0.00090625 28.3485 L 113.387625 28.3485 " transform="matrix(1, 0, 0, -1, 28.378, 196.161)"/>
<path fill="none" stroke-width="0.3985" stroke-linecap="butt" stroke-linejoin="miter" stroke="rgb(50%, 50%, 50%)" stroke-opacity="1" stroke-dasharray="0.3985 1.99255" stroke-miterlimit="10" d="M 0.00090625 28.3485 L 0.00090625 141.735219 " transform="matrix(1, 0, 0, -1, 28.378, 196.161)"/>
<path fill="none" stroke-width="0.3985" stroke-linecap="butt" stroke-linejoin="miter" stroke="rgb(50%, 50%, 50%)" stroke-opacity="1" stroke-dasharray="0.3985 1.99255" stroke-miterlimit="10" d="M 113.387625 28.3485 L 113.387625 141.735219 " transform="matrix(1, 0, 0, -1, 28.378, 196.161)"/>
<path fill="none" stroke-width="0.3985" stroke-linecap="butt" stroke-linejoin="miter" stroke="rgb(50%, 50%, 50%)" stroke-opacity="1" stroke-dasharray="0.3985 1.99255" stroke-miterlimit="10" d="M 0.00090625 28.3485 L 113.387625 141.735219 " transform="matrix(1, 0, 0, -1, 28.378, 196.161)"/>
<path fill="none" stroke-width="0.3985" stroke-linecap="butt" stroke-linejoin="miter" stroke="rgb(50%, 50%, 50%)" stroke-opacity="1" stroke-dasharray="0.3985 1.99255" stroke-miterlimit="10" d="M 113.387625 28.3485 L 0.00090625 141.735219 " transform="matrix(1, 0, 0, -1, 28.378, 196.161)"/>
<path fill="none" stroke-width="0.3985" stroke-linecap="butt" stroke-linejoin="miter" stroke="rgb(50%, 50%, 50%)" stroke-opacity="1" stroke-dasharray="0.3985 1.99255" stroke-miterlimit="10" d="M 136.872 85.039906 L -23.483469 85.039906 " transform="matrix(1, 0, 0, -1, 28.378, 196.161)"/>
<g clip-path="url(#clip-3)">
<path fill="none" stroke-width="0.3985" stroke-linecap="butt" stroke-linejoin="miter" stroke="rgb(50%, 50%, 50%)" stroke-opacity="1" stroke-dasharray="0.3985 1.99255" stroke-miterlimit="10" d="M 56.692313 4.864125 L 136.872 85.039906 " transform="matrix(1, 0, 0, -1, 28.378, 196.161)"/>
</g>
<g clip-path="url(#clip-4)">
<path fill="none" stroke-width="0.3985" stroke-linecap="butt" stroke-linejoin="miter" stroke="rgb(50%, 50%, 50%)" stroke-opacity="1" stroke-miterlimit="10" d="M 141.567313 85.039906 C 141.567313 87.633656 139.46575 89.735219 136.872 89.735219 C 134.27825 89.735219 132.172781 87.633656 132.172781 85.039906 C 132.172781 82.446156 134.27825 80.344594 136.872 80.344594 C 139.46575 80.344594 141.567313 82.446156 141.567313 85.039906 Z M 141.567313 85.039906 " transform="matrix(1, 0, 0, -1, 28.378, 196.161)"/>
</g>
<g clip-path="url(#clip-5)">
<path fill="none" stroke-width="0.3985" stroke-linecap="butt" stroke-linejoin="miter" stroke="rgb(50%, 50%, 50%)" stroke-opacity="1" stroke-dasharray="0.3985 1.99255" stroke-miterlimit="10" d="M 56.692313 4.864125 L -23.483469 85.039906 " transform="matrix(1, 0, 0, -1, 28.378, 196.161)"/>
</g>
<path fill="none" stroke-width="0.3985" stroke-linecap="butt" stroke-linejoin="miter" stroke="rgb(50%, 50%, 50%)" stroke-opacity="1" stroke-miterlimit="10" d="M -18.788156 85.039906 C -18.788156 87.633656 -20.889719 89.735219 -23.483469 89.735219 C -26.077219 89.735219 -28.178781 87.633656 -28.178781 85.039906 C -28.178781 82.446156 -26.077219 80.344594 -23.483469 80.344594 C -20.889719 80.344594 -18.788156 82.446156 -18.788156 85.039906 Z M -18.788156 85.039906 " transform="matrix(1, 0, 0, -1, 28.378, 196.161)"/>
<path fill="none" stroke-width="0.3985" stroke-linecap="butt" stroke-linejoin="miter" stroke="rgb(50%, 50%, 50%)" stroke-opacity="1" stroke-dasharray="0.3985 1.99255" stroke-miterlimit="10" d="M -23.483469 85.039906 L 56.692313 165.215688 " transform="matrix(1, 0, 0, -1, 28.378, 196.161)"/>
<g clip-path="url(#clip-6)">
<path fill="none" stroke-width="0.3985" stroke-linecap="butt" stroke-linejoin="miter" stroke="rgb(50%, 50%, 50%)" stroke-opacity="1" stroke-dasharray="0.3985 1.99255" stroke-miterlimit="10" d="M 136.872 85.039906 L 56.692313 165.215688 " transform="matrix(1, 0, 0, -1, 28.378, 196.161)"/>
</g>
<path fill="none" stroke-width="0.3985" stroke-linecap="butt" stroke-linejoin="miter" stroke="rgb(0%, 0%, 0%)" stroke-opacity="1" stroke-miterlimit="10" d="M 113.387625 85.039906 C 113.387625 128.965688 92.286063 170.235219 56.688406 195.965688 " transform="matrix(1, 0, 0, -1, 28.378, 196.161)"/>
<path fill="none" stroke-width="0.3985" stroke-linecap="butt" stroke-linejoin="miter" stroke="rgb(0%, 0%, 0%)" stroke-opacity="1" stroke-miterlimit="10" d="M 0.00090625 85.039906 C 0.00090625 128.965688 21.098563 170.235219 56.696219 195.965688 " transform="matrix(1, 0, 0, -1, 28.378, 196.161)"/>
<g clip-path="url(#clip-7)">
<path fill="none" stroke-width="0.3985" stroke-linecap="butt" stroke-linejoin="miter" stroke="rgb(50%, 50%, 50%)" stroke-opacity="1" stroke-dasharray="0.3985 1.99255" stroke-miterlimit="10" d="M 136.872 85.039906 L 56.692313 195.946156 " transform="matrix(1, 0, 0, -1, 28.378, 196.161)"/>
</g>
<path fill="none" stroke-width="0.3985" stroke-linecap="butt" stroke-linejoin="miter" stroke="rgb(50%, 50%, 50%)" stroke-opacity="1" stroke-dasharray="0.3985 1.99255" stroke-miterlimit="10" d="M -23.483469 85.039906 L 56.692313 195.946156 " transform="matrix(1, 0, 0, -1, 28.378, 196.161)"/>
</svg>
