<?xml version="1.0" encoding="UTF-8"?>
<svg xmlns="http://www.w3.org/2000/svg" xmlns:xlink="http://www.w3.org/1999/xlink" width="349.95pt" height="178.73pt" viewBox="0 0 349.95 178.73">
<defs>
<clipPath id="clip-0">
<path clip-rule="nonzero" d="M 118 178 L 232 178 L 232 178.730469 L 118 178.730469 Z M 118 178 "/>
</clipPath>
<clipPath id="clip-1">
<path clip-rule="nonzero" d="M 118 149 L 119 149 L 119 178.730469 L 118 178.730469 Z M 118 149 "/>
</clipPath>
<clipPath id="clip-2">
<path clip-rule="nonzero" d="M 231 149 L 232 149 L 232 178.730469 L 231 178.730469 Z M 231 149 "/>
</clipPath>
<clipPath id="clip-3">
<path clip-rule="nonzero" d="M 334 139 L 349.949219 139 L 349.949219 161 L 334 161 Z M 334 139 "/>
</clipPath>
<clipPath id="clip-4">
<path clip-rule="nonzero" d="M 169 0 L 349.949219 0 L 349.949219 156 L 169 156 Z M 169 0 "/>
</clipPath>
</defs>
<g clip-path="url(#clip-0)">
<path fill="none" stroke-width="0.3985" stroke-linecap="butt" stroke-linejoin="miter" stroke="rgb(0%, 0%, 0%)" stroke-opacity="1" stroke-miterlimit="10" d="M 0.00025 -0.00025 L 113.386969 -0.00025 " transform="matrix(1, 0, 0, -1, 118.281, 178.531)"/>
</g>
<g clip-path="url(#clip-1)">
<path fill="none" stroke-width="0.3985" stroke-linecap="butt" stroke-linejoin="miter" stroke="rgb(0%, 0%, 0%)" stroke-opacity="1" stroke-miterlimit="10" d="M 0.00025 -0.00025 L 0.00025 28.347406 " transform="matrix(1, 0, 0, -1, 118.281, 178.531)"/>
</g>
<g clip-path="url(#clip-2)">
<path fill="none" stroke-width="0.3985" stroke-linecap="butt" stroke-linejoin="miter" stroke="rgb(0%, 0%, 0%)" stroke-opacity="1" stroke-miterlimit="10" d="M 113.386969 -0.00025 L 113.386969 28.347406 " transform="matrix(1, 0, 0, -1, 118.281, 178.531)"/>
</g>
<path fill="none" stroke-width="0.3985" stroke-linecap="butt" stroke-linejoin="miter" stroke="rgb(50%, 50%, 50%)" stroke-opacity="1" stroke-dasharray="0.3985 1.99255" stroke-miterlimit="10" d="M 56.695562 28.347406 L 226.773687 28.347406 " transform="matrix(1, 0, 0, -1, 118.281, 178.531)"/>
<g clip-path="url(#clip-3)">
<path fill="none" stroke-width="0.3985" stroke-linecap="butt" stroke-linejoin="miter" stroke="rgb(50%, 50%, 50%)" stroke-opacity="1" stroke-miterlimit="10" d="M 231.469 28.347406 C 231.469 30.941156 229.367437 33.042719 226.773687 33.042719 C 224.179937 33.042719 222.078375 30.941156 222.078375 28.347406 C 222.078375 25.753656 224.179937 23.652094 226.773687 23.652094 C 229.367437 23.652094 231.469 25.753656 231.469 28.347406 Z M 231.469 28.347406 " transform="matrix(1, 0, 0, -1, 118.281, 178.531)"/>
</g>
<path fill="none" stroke-width="0.3985" stroke-linecap="butt" stroke-linejoin="miter" stroke="rgb(50%, 50%, 50%)" stroke-opacity="1" stroke-dasharray="0.3985 1.99255" stroke-miterlimit="10" d="M 56.695562 28.347406 L -113.386469 28.347406 " transform="matrix(1, 0, 0, -1, 118.281, 178.531)"/>
<path fill="none" stroke-width="0.3985" stroke-linecap="butt" stroke-linejoin="miter" stroke="rgb(50%, 50%, 50%)" stroke-opacity="1" stroke-miterlimit="10" d="M -108.691156 28.347406 C -108.691156 30.941156 -110.792719 33.042719 -113.386469 33.042719 C -115.980219 33.042719 -118.081781 30.941156 -118.081781 28.347406 C -118.081781 25.753656 -115.980219 23.652094 -113.386469 23.652094 C -110.792719 23.652094 -108.691156 25.753656 -108.691156 28.347406 Z M -108.691156 28.347406 " transform="matrix(1, 0, 0, -1, 118.281, 178.531)"/>
<path fill="none" stroke-width="0.3985" stroke-linecap="butt" stroke-linejoin="miter" stroke="rgb(0%, 0%, 0%)" stroke-opacity="1" stroke-miterlimit="10" d="M 113.386969 28.347406 C 113.386969 83.570063 93.207281 136.921625 56.683844 178.331781 " transform="matrix(1, 0, 0, -1, 118.281, 178.531)"/>
<path fill="none" stroke-width="0.3985" stroke-linecap="butt" stroke-linejoin="miter" stroke="rgb(0%, 0%, 0%)" stroke-opacity="1" stroke-miterlimit="10" d="M 0.00025 28.347406 C 0.00025 83.570063 20.179937 136.921625 56.703375 178.331781 " transform="matrix(1, 0, 0, -1, 118.281, 178.531)"/>
<g clip-path="url(#clip-4)">
<path fill="none" stroke-width="0.3985" stroke-linecap="butt" stroke-linejoin="miter" stroke="rgb(50%, 50%, 50%)" stroke-opacity="1" stroke-dasharray="0.3985 1.99255" stroke-miterlimit="10" d="M 226.773687 28.347406 L 56.691656 178.304438 " transform="matrix(1, 0, 0, -1, 118.281, 178.531)"/>
</g>
<path fill="none" stroke-width="0.3985" stroke-linecap="butt" stroke-linejoin="miter" stroke="rgb(50%, 50%, 50%)" stroke-opacity="1" stroke-dasharray="0.3985 1.99255" stroke-miterlimit="10" d="M -113.386469 28.347406 L 56.691656 178.304438 " transform="matrix(1, 0, 0, -1, 118.281, 178.531)"/>
</svg>
